<svg width="16" height="16" viewBox="0 0 16 16" fill="none" xmlns="http://www.w3.org/2000/svg">
<circle cx="8" cy="8" r="8" fill="white"/>
<path d="M7.94117 2.99986C8.8995 3.00002 9.8376 3.27564 10.6437 3.79388C11.4498 4.31212 12.09 5.05114 12.488 5.92294C12.886 6.79473 13.025 7.76254 12.8885 8.7111C12.7519 9.65966 12.3457 10.549 11.718 11.2732C11.0903 11.9974 10.2677 12.5259 9.34817 12.7957C8.42863 13.0656 7.45088 13.0655 6.5314 12.7954C5.61191 12.5253 4.78944 11.9966 4.16194 11.2723C3.53443 10.548 3.12835 9.65855 2.99206 8.70995C2.96082 8.49119 2.84397 8.29379 2.6672 8.16118C2.49042 8.02858 2.26821 7.97162 2.04945 8.00286C1.83068 8.03409 1.63328 8.15094 1.50068 8.32772C1.36807 8.50449 1.31112 8.7267 1.34235 8.94547C1.55301 10.4162 2.24894 11.7744 3.31964 12.8045C4.39035 13.8346 5.77447 14.4775 7.25226 14.6311C8.73005 14.7847 10.2168 14.4403 11.4765 13.6525C12.7362 12.8647 13.6966 11.6786 14.2053 10.2827C14.714 8.88669 14.7417 7.3608 14.2842 5.94726C13.8266 4.53371 12.91 3.31351 11.6798 2.48038C10.4496 1.64725 8.9764 1.24895 7.494 1.3487C6.0116 1.44845 4.605 2.04054 3.49752 3.03097V2.16668C3.49752 1.94571 3.40974 1.73378 3.25349 1.57753C3.09723 1.42128 2.88531 1.3335 2.66434 1.3335C2.44336 1.3335 2.23144 1.42128 2.07519 1.57753C1.91893 1.73378 1.83115 1.94571 1.83115 2.16668V5.49942C1.83115 5.95933 2.20442 6.3326 2.66434 6.3326H5.44162C5.66259 6.3326 5.87451 6.24482 6.03077 6.08857C6.18702 5.93231 6.2748 5.72039 6.2748 5.49942C6.2748 5.27844 6.18702 5.06652 6.03077 4.91027C5.87451 4.75401 5.66259 4.66623 5.44162 4.66623H4.21517C4.68406 4.14199 5.2583 3.7226 5.90035 3.43545C6.54241 3.14831 7.23783 2.99988 7.94117 2.99986ZM8.49662 5.49942C8.49662 5.27844 8.40884 5.06652 8.25259 4.91027C8.09634 4.75401 7.88441 4.66623 7.66344 4.66623C7.44247 4.66623 7.23054 4.75401 7.07429 4.91027C6.91804 5.06652 6.83026 5.27844 6.83026 5.49942V8.2767C6.83026 8.73661 7.20352 9.10988 7.66344 9.10988H9.88526C10.1062 9.10988 10.3182 9.0221 10.4744 8.86585C10.6307 8.70959 10.7184 8.49767 10.7184 8.2767C10.7184 8.05572 10.6307 7.8438 10.4744 7.68755C10.3182 7.53129 10.1062 7.44351 9.88526 7.44351H8.49662V5.49942Z" fill="#434343"/>
</svg>
