<svg width="24" height="24" viewBox="0 0 24 24" fill="none" xmlns="http://www.w3.org/2000/svg">
<path d="M11.5 5.5H9C8.858 5.5 8.73933 5.452 8.644 5.356C8.548 5.26 8.5 5.141 8.5 4.999C8.5 4.857 8.548 4.73833 8.644 4.643C8.74 4.54767 8.85867 4.5 9 4.5H11.5V2C11.5 1.858 11.548 1.73933 11.644 1.644C11.74 1.548 11.859 1.5 12.001 1.5C12.143 1.5 12.2617 1.548 12.357 1.644C12.4523 1.74 12.5 1.85867 12.5 2V4.5H15C15.142 4.5 15.2607 4.548 15.356 4.644C15.452 4.74 15.5 4.859 15.5 5.001C15.5 5.143 15.452 5.26167 15.356 5.357C15.26 5.45233 15.1413 5.5 15 5.5H12.5V8C12.5 8.142 12.452 8.26067 12.356 8.356C12.26 8.452 12.141 8.5 11.999 8.5C11.857 8.5 11.7383 8.452 11.643 8.356C11.5477 8.26 11.5 8.14133 11.5 8V5.5ZM7.308 21.115C6.886 21.115 6.53033 20.9707 6.241 20.682C5.95233 20.3927 5.808 20.037 5.808 19.615C5.808 19.1937 5.95233 18.8383 6.241 18.549C6.53033 18.2597 6.886 18.115 7.308 18.115C7.72933 18.115 8.08467 18.2597 8.374 18.549C8.66333 18.8383 8.808 19.1937 8.808 19.615C8.808 20.0363 8.66333 20.392 8.374 20.682C8.08467 20.9707 7.72933 21.115 7.308 21.115ZM16.692 21.115C16.2707 21.115 15.9153 20.9707 15.626 20.682C15.3367 20.3927 15.192 20.037 15.192 19.615C15.192 19.1937 15.3367 18.8383 15.626 18.549C15.9153 18.2597 16.2707 18.115 16.692 18.115C17.1133 18.115 17.469 18.2597 17.759 18.549C18.049 18.8383 18.1933 19.1937 18.192 19.615C18.1907 20.0363 18.0463 20.392 17.759 20.682C17.4717 20.972 17.116 21.1163 16.692 21.115ZM3.808 3.5H2.5C2.358 3.5 2.23933 3.452 2.144 3.356C2.048 3.26 2 3.14133 2 3C2 2.85867 2.048 2.74 2.144 2.644C2.24 2.548 2.35867 2.5 2.5 2.5H3.936C4.09533 2.5 4.24033 2.54 4.371 2.62C4.50167 2.7 4.59967 2.81333 4.665 2.96L8.545 11.115H15.179C15.2943 11.115 15.397 11.0863 15.487 11.029C15.5763 10.971 15.653 10.891 15.717 10.789L19.073 4.75C19.1177 4.67333 19.1777 4.61233 19.253 4.567C19.327 4.52233 19.4097 4.5 19.501 4.5C19.6917 4.5 19.8347 4.58233 19.93 4.747C20.0253 4.91167 20.0263 5.07733 19.933 5.244L16.569 11.334C16.4243 11.578 16.236 11.7693 16.004 11.908C15.772 12.0467 15.518 12.1157 15.242 12.115H8.1L6.885 14.346C6.78233 14.4993 6.779 14.666 6.875 14.846C6.971 15.026 7.11533 15.116 7.308 15.116H17.692C17.834 15.116 17.953 15.1637 18.049 15.259C18.145 15.3543 18.1927 15.4733 18.192 15.616C18.1913 15.7587 18.1437 15.8773 18.049 15.972C17.9543 16.0667 17.8353 16.1143 17.692 16.115H7.308C6.72467 16.115 6.28833 15.8703 5.999 15.381C5.70967 14.891 5.70367 14.396 5.981 13.896L7.485 11.216L3.808 3.5Z" fill="#434343"/>
</svg>
