<svg width="20" height="20" viewBox="0 0 20 20" fill="none" xmlns="http://www.w3.org/2000/svg">
<path d="M10 2.5C5.86437 2.5 2.5 5.86437 2.5 10C2.5 14.1356 5.86437 17.5 10 17.5C14.1356 17.5 17.5 14.1356 17.5 10C17.5 5.86437 14.1356 2.5 10 2.5ZM10 3.75C13.4594 3.75 16.25 6.54063 16.25 10C16.25 13.4594 13.4594 16.25 10 16.25C6.54063 16.25 3.75 13.4594 3.75 10C3.75 6.54063 6.54063 3.75 10 3.75ZM8.26188 5.3125C7.58775 5.56426 6.97555 5.95788 6.46672 6.46672C5.95788 6.97555 5.56426 7.58775 5.3125 8.26188L6.48438 8.69125C6.67272 8.18681 6.96723 7.72872 7.34798 7.34798C7.72872 6.96723 8.18681 6.67272 8.69125 6.48438L8.26188 5.3125ZM10 8.125C8.97188 8.125 8.125 8.97188 8.125 10C8.125 11.0281 8.97188 11.875 10 11.875C11.0281 11.875 11.875 11.0281 11.875 10C11.875 8.97188 11.0281 8.125 10 8.125ZM10 9.375C10.3519 9.375 10.625 9.64875 10.625 10C10.625 10.3519 10.3513 10.625 10 10.625C9.64813 10.625 9.375 10.3513 9.375 10C9.375 9.64813 9.64875 9.375 10 9.375ZM13.5156 11.3088C13.3273 11.8132 13.0328 12.2713 12.652 12.652C12.2713 13.0328 11.8132 13.3273 11.3088 13.5156L11.7381 14.6875C12.4123 14.4357 13.0244 14.0421 13.5333 13.5333C14.0421 13.0244 14.4357 12.4123 14.6875 11.7381L13.5156 11.3088Z" fill="#434343"/>
</svg>
