<svg width="16" height="16" viewBox="0 0 16 16" fill="none" xmlns="http://www.w3.org/2000/svg">
<path d="M15.1598 6.34335L15.1603 6.3434C15.2094 6.34772 15.2376 6.37796 15.2461 6.40365L15.2464 6.40449C15.251 6.41831 15.251 6.4312 15.2475 6.4435C15.244 6.4559 15.2363 6.46989 15.2212 6.48285L15.2206 6.48337L11.7299 9.47761L11.3848 9.77359L11.4876 10.2164L12.5168 14.6516C12.5168 14.6517 12.5168 14.6518 12.5169 14.6518C12.5225 14.6763 12.5152 14.7068 12.483 14.7296L12.483 14.7296C12.4477 14.7546 12.3992 14.7565 12.3625 14.7349L12.3608 14.7339L8.37872 12.4048L8.00013 12.1834L7.62151 12.4048L3.63802 14.7338L3.63769 14.734C3.6184 14.7453 3.59921 14.75 3.58065 14.75C3.5583 14.75 3.53601 14.7434 3.51562 14.729C3.49912 14.7174 3.49 14.704 3.48526 14.6916C3.48055 14.6794 3.47928 14.6661 3.48262 14.6515C3.48263 14.6514 3.48265 14.6514 3.48266 14.6513L4.5118 10.2164L4.61455 9.77364L4.26957 9.47766L0.778893 6.48282L0.777462 6.4816C0.750863 6.45889 0.745371 6.42959 0.753582 6.40489L0.0469517 6.17001L0.753583 6.40489C0.762503 6.37805 0.791035 6.34786 0.840435 6.34328C0.840544 6.34327 0.840653 6.34326 0.840762 6.34325L5.45832 5.93314L5.90126 5.8938L6.07926 5.48629L7.90496 1.30663C7.905 1.30654 7.90504 1.30645 7.90508 1.30637C7.91792 1.27735 7.95143 1.25 8.00006 1.25C8.04893 1.25 8.08257 1.27761 8.09528 1.30617C8.09533 1.30628 8.09538 1.30639 8.09543 1.3065L9.92085 5.48625L10.0988 5.89379L10.5418 5.93314L15.1598 6.34335Z" fill="white" stroke="#434343" stroke-width="1.5"/>
</svg>
