<svg width="25" height="24" viewBox="0 0 25 24" fill="none" xmlns="http://www.w3.org/2000/svg">
<path d="M12.6387 13C13.191 13 13.6387 12.5523 13.6387 12C13.6387 11.4477 13.191 11 12.6387 11C12.0864 11 11.6387 11.4477 11.6387 12C11.6387 12.5523 12.0864 13 12.6387 13Z" stroke="#23608E" stroke-width="2" stroke-linecap="round" stroke-linejoin="round"/>
<path d="M19.6387 13C20.191 13 20.6387 12.5523 20.6387 12C20.6387 11.4477 20.191 11 19.6387 11C19.0864 11 18.6387 11.4477 18.6387 12C18.6387 12.5523 19.0864 13 19.6387 13Z" stroke="#23608E" stroke-width="2" stroke-linecap="round" stroke-linejoin="round"/>
<path d="M5.63867 13C6.19096 13 6.63867 12.5523 6.63867 12C6.63867 11.4477 6.19096 11 5.63867 11C5.08639 11 4.63867 11.4477 4.63867 12C4.63867 12.5523 5.08639 13 5.63867 13Z" stroke="#23608E" stroke-width="2" stroke-linecap="round" stroke-linejoin="round"/>
</svg>
