<svg width="16" height="16" viewBox="0 0 16 16" fill="none" xmlns="http://www.w3.org/2000/svg">
<g clip-path="url(#clip0_1348_17210)">
<path d="M15.333 2.6665V6.6665H11.333" stroke="#434343" stroke-width="1.5" stroke-linecap="round" stroke-linejoin="round"/>
<path d="M13.6602 10.0002C13.2269 11.2268 12.4066 12.2793 11.323 12.9992C10.2394 13.719 8.95122 14.0672 7.65253 13.9912C6.35383 13.9153 5.11502 13.4192 4.12275 12.578C3.13048 11.7367 2.43853 10.5957 2.15116 9.32688C1.86378 8.0581 1.99656 6.7303 2.52949 5.54355C3.06241 4.35681 3.9666 3.37541 5.10581 2.74726C6.24503 2.11912 7.55753 1.87824 8.84555 2.06093C10.1336 2.24363 11.3273 2.84 12.2469 3.76017L15.3336 6.66684" stroke="#434343" stroke-width="1.5" stroke-linecap="round" stroke-linejoin="round"/>
</g>
<defs>
<clipPath id="clip0_1348_17210">
<rect width="16" height="16" fill="white"/>
</clipPath>
</defs>
</svg>
