<svg width="16" height="16" viewBox="0 0 16 16" fill="none" xmlns="http://www.w3.org/2000/svg">
<path d="M15.3888 6.42366L15.3886 6.42299C15.3608 6.33905 
15.2808 6.26984 15.1735 6.26038L15.1731 6.26035L10.5551 
5.85013L10.2007 5.81866L10.0583 5.49262L8.23275 1.31256C8.23269
 1.31242 8.23263 1.31228 8.23257 1.31214C8.19545 1.22813 8.10727
  1.16641 8.00006 1.16641C7.89298 1.16641 7.80486 1.22799 7.76767 
  1.31261C7.76764 1.31268 7.76761 1.31274 7.76758 1.31281L5.94181 
  5.49266L5.79941 5.81866L5.44505 5.85014L0.827251 6.26026C0.827128
   6.26027 0.827005 6.26028 0.826881 6.26029C0.719514 6.27015 0.63943
    6.33917 0.61124 6.42398C0.583601 6.50713 0.607453 6.6001 0.680076
     6.66209L0.681221 6.66307L4.1719 9.65791L4.44788 9.89469L4.36568
      10.2489L3.33651 14.6839C3.33648 14.6841 3.33646 14.6842 3.33644 
      14.6843C3.31675 14.77 3.34892 14.8612 3.4289 14.9178C3.47498 
      14.9504 3.52764 14.9664 3.58065 14.9664C3.62575 14.9664 3.6711 
      14.9547 3.71347 14.9299L3.71373 14.9297L7.69722 12.6007L8.00012 
      12.4236L8.30299 12.6007L12.285 14.9298L12.2864 14.9306C12.374 
      14.9822 12.4863 14.9775 12.5697 14.9184L12.5698 14.9184C12.6508 
      14.8609 12.6825 14.7692 12.663 14.6846L15.3888 6.42366ZM15.3888
       6.42366C15.4162 6.5064 15.393 6.59966 15.3187 6.66321L15.3182
        6.66363L11.8275 9.65787L11.5515 9.89465L11.6337 10.2489L12.663
         14.6842L15.3888 6.42366Z" fill="white" stroke="#23608E" stroke-width="1.2"/>
</svg>
