<svg width="16" height="16" viewBox="0 0 16 16" fill="none" xmlns="http://www.w3.org/2000/svg">
<path d="M2 4H3.33333H14" stroke="#434343" stroke-width="1.5" stroke-linecap="round" stroke-linejoin="round"/>
<path d="M5.33301 4.00016V2.66683C5.33301 2.31321 5.47348 1.97407 5.72353 1.72402C5.97358 1.47397 6.31272 1.3335 6.66634 1.3335H9.33301C9.68663 1.3335 10.0258 1.47397 10.2758 1.72402C10.5259 1.97407 10.6663 2.31321 10.6663 2.66683V4.00016M12.6663 4.00016V13.3335C12.6663 13.6871 12.5259 14.0263 12.2758 14.2763C12.0258 14.5264 11.6866 14.6668 11.333 14.6668H4.66634C4.31272 14.6668 3.97358 14.5264 3.72353 14.2763C3.47348 14.0263 3.33301 13.6871 3.33301 13.3335V4.00016H12.6663Z" stroke="#434343" stroke-width="1.5" stroke-linecap="round" stroke-linejoin="round"/>
<path d="M6.66699 7.3335V11.3335" stroke="#434343" stroke-width="1.5" stroke-linecap="round" stroke-linejoin="round"/>
<path d="M9.33301 7.3335V11.3335" stroke="#434343" stroke-width="1.5" stroke-linecap="round" stroke-linejoin="round"/>
</svg>
