<svg width="12" height="14" viewBox="0 0 12 14" fill="none" xmlns="http://www.w3.org/2000/svg">
<path d="M2 3.085V9.5C1.9999 10.1347 2.24123 10.7457 2.67504 11.209C3.10885 11.6724 3.70265 11.9534 4.336 11.995L4.5 12H8.914C8.81061 12.2924 8.61913 12.5456 8.3659 12.7247C8.11267 12.9038 7.81016 13 7.5 13H4C3.20435 13 2.44129 12.6839 1.87868 12.1213C1.31607 11.5587 1 10.7956 1 10V4.5C0.999838 4.18967 1.09593 3.88694 1.27503 3.63351C1.45413 3.38008 1.70742 3.18844 2 3.085ZM9.5 1C9.89782 1 10.2794 1.15804 10.5607 1.43934C10.842 1.72064 11 2.10218 11 2.5V9.5C11 9.89782 10.842 10.2794 10.5607 10.5607C10.2794 10.842 9.89782 11 9.5 11H4.5C4.10218 11 3.72064 10.842 3.43934 10.5607C3.15804 10.2794 3 9.89782 3 9.5V2.5C3 2.10218 3.15804 1.72064 3.43934 1.43934C3.72064 1.15804 4.10218 1 4.5 1H9.5ZM9.5 2H4.5C4.36739 2 4.24022 2.05268 4.14645 2.14645C4.05268 2.24021 4 2.36739 4 2.5V9.5C4 9.63261 4.05268 9.75979 4.14645 9.85355C4.24022 9.94732 4.36739 10 4.5 10H9.5C9.63261 10 9.75979 9.94732 9.85355 9.85355C9.94732 9.75979 10 9.63261 10 9.5V2.5C10 2.36739 9.94732 2.24021 9.85355 2.14645C9.75979 2.05268 9.63261 2 9.5 2Z" fill="#434343" stroke="#434343" stroke-width="0.5"/>
</svg>
