<svg width="14" height="15" viewBox="0 0 14 15" fill="none" xmlns="http://www.w3.org/2000/svg">
<g clip-path="url(#clip0_1338_4557)">
<path d="M6.41675 2.36914H2.33341C2.024 2.36914 1.72725 2.49397 1.50846 2.71616C1.28966 2.93835 1.16675 3.23971 1.16675 3.55394V11.8476C1.16675 12.1618 1.28966 12.4631 1.50846 12.6853C1.72725 12.9075 2.024 13.0324 2.33341 13.0324H10.5001C10.8095 13.0324 11.1062 12.9075 11.325 12.6853C11.5438 12.4631 11.6667 12.1618 11.6667 11.8476V7.70075" stroke="#434343" stroke-opacity="0.8" stroke-width="2" stroke-linecap="round" stroke-linejoin="round"/>
<path d="M10.7917 1.48135C11.0238 1.24568 11.3386 1.11328 11.6667 1.11328C11.9949 1.11328 12.3097 1.24568 12.5417 1.48135C12.7738 1.71702 12.9042 2.03666 12.9042 2.36995C12.9042 2.70324 12.7738 3.02288 12.5417 3.25855L7.00008 8.88636L4.66675 9.47876L5.25008 7.10916L10.7917 1.48135Z" stroke="#434343" stroke-opacity="0.8" stroke-width="2" stroke-linecap="round" stroke-linejoin="round"/>
</g>
<defs>
<clipPath id="clip0_1338_4557">
<rect width="14" height="14.2176" fill="white"/>
</clipPath>
</defs>
</svg>
