<svg width="15" height="18" viewBox="0 0 15 18" fill="none" xmlns="http://www.w3.org/2000/svg">
<path d="M7.45915 10.2536L7.46518 10.2254C7.5817 9.74531 7.72835 9.14665 7.61384 8.60424C7.5375 8.17634 7.2221 8.0096 6.9529 7.99754C6.63549 7.98348 6.35223 8.16429 6.28192 8.42745C6.14933 8.9096 6.26786 9.56853 6.48482 10.4083C6.21161 11.0592 5.77567 12.0054 5.45625 12.5679C4.86161 12.8752 4.06406 13.3493 3.94554 13.948C3.92143 14.0585 3.94955 14.1991 4.01585 14.3257C4.09018 14.4663 4.2087 14.5748 4.34732 14.627C4.40759 14.6491 4.47991 14.6672 4.56429 14.6672C4.91786 14.6672 5.4904 14.3819 6.25379 13.0721C6.37031 13.0339 6.49085 12.9937 6.60737 12.9536C7.15379 12.7687 7.72031 12.5759 8.23259 12.4895C8.79911 12.7929 9.44397 12.9877 9.88192 12.9877C10.3158 12.9877 10.4866 12.7306 10.5509 12.5759C10.6634 12.3047 10.6092 11.9632 10.4263 11.7804C10.1612 11.5192 9.51629 11.4509 8.51183 11.5754C8.01763 11.2741 7.6942 10.8643 7.45915 10.2536ZM5.25536 13.3051C4.97612 13.7109 4.76518 13.9138 4.65067 14.0022C4.78527 13.7551 5.04844 13.494 5.25536 13.3051ZM7.01518 8.57411C7.11964 8.7529 7.10558 9.2933 7.02522 9.56652C6.92679 9.16674 6.91272 8.60022 6.97098 8.53393C6.98705 8.53594 7.00112 8.54799 7.01518 8.57411ZM6.98304 10.9949C7.19799 11.3665 7.4692 11.6859 7.76853 11.923C7.3346 12.0214 6.93884 12.1842 6.58527 12.3288C6.50089 12.3629 6.41853 12.3971 6.33817 12.4292C6.60536 11.9451 6.82835 11.3967 6.98304 10.9949ZM10.1089 12.3107C10.1109 12.3147 10.1129 12.3208 10.1009 12.3288H10.0969L10.0929 12.3348C10.0768 12.3449 9.91205 12.4413 9.2029 12.1621C10.0185 12.1239 10.1069 12.3087 10.1089 12.3107ZM13.954 4.51205L9.6308 0.188839C9.51027 0.0683036 9.34754 0 9.17679 0H0.642857C0.287277 0 0 0.287277 0 0.642857V17.3571C0 17.7127 0.287277 18 0.642857 18H13.5C13.8556 18 14.1429 17.7127 14.1429 17.3571V4.96808C14.1429 4.79732 14.0746 4.63259 13.954 4.51205ZM12.6603 5.26339H8.87946V1.48259L12.6603 5.26339ZM12.6964 16.5536H1.44643V1.44643H7.51339V5.78571C7.51339 6.00949 7.60229 6.2241 7.76052 6.38234C7.91876 6.54057 8.13337 6.62946 8.35714 6.62946H12.6964V16.5536Z" fill="#434343"/>
</svg>
