<svg width="1440" height="1024" fill="none" xmlns="http://www.w3.org/2000/svg"><g clip-path="url(#a)"><path fill="#BDD6DB" d="M0 0h1440v1024H0z"/><path fill-rule="evenodd" clip-rule="evenodd" d="M343.599-125.646C428.29-74.93 536.633 8.266 508.097 102.767c-28.772 95.282-183.699 44.75-264.524 102.835-72.327 51.978-67.976 191.948-156.69 199.871-98.34 8.783-205.021-69.451-227.716-165.538C-161.878 150.833-55.607 93.283-4.85 17.088c37.14-55.754 52.39-127.6 114.383-152.994 76.033-31.146 163.573-31.954 234.066 10.26zM1347.99 641.51c119.72 71.692 272.87 189.3 232.53 322.887-40.67 134.693-259.68 63.263-373.93 145.373-102.24 73.47-96.09 271.34-221.499 282.54-139.014 12.41-289.82-98.18-321.902-234.01-29.749-125.96 120.476-207.309 192.227-315.02 52.502-78.814 74.059-180.376 161.694-216.273 107.48-44.028 231.23-45.17 330.88 14.503z" fill="#A1C7CE"/><circle cx="1390" cy="64" r="304" stroke="#0B4A6F" stroke-opacity=".1" stroke-width="2"/><path d="M1627 61.5c0 130.613-106.11 236.5-237 236.5s-237-105.887-237-236.5S1259.11-175 1390-175s237 105.887 237 236.5z" stroke="#0B4A6F" stroke-opacity=".1" stroke-width="2"/><circle cx="1390.5" cy="62.5" r="270.5" stroke="#0B4A6F" stroke-opacity=".1" stroke-width="2"/><circle cx="107.997" cy="658.997" r="402.997" stroke="#0B4A6F" stroke-opacity=".1" stroke-width="2"/><circle cx="108.659" cy="657.01" r="358.623" stroke="#0B4A6F" stroke-opacity=".1" stroke-width="2"/><path d="M422.247 655.685c0 173.188-140.693 313.588-314.25 313.588s-314.25-140.4-314.25-313.588c0-173.187 140.693-313.587 314.25-313.587s314.25 140.4 314.25 313.587z" stroke="#0B4A6F" stroke-opacity=".1" stroke-width="2"/></g><defs><clipPath id="a"><path fill="#fff" d="M0 0h1440v1024H0z"/></clipPath></defs></svg>